# Blender v2.93.2 OBJ File: ''
# www.blender.org
o Cube_Cube.001
v -1.000000 -0.500000 0.500000
v -1.000000 0.500000 0.500000
v -1.000000 -0.500000 -0.500000
v -1.000000 0.500000 -0.500000
v 1.000000 -0.500000 0.500000
v 1.000000 0.500000 0.500000
v 1.000000 -0.500000 -0.500000
v 1.000000 0.500000 -0.500000
vt 0.944573 0.643031
vt 0.770247 0.387454
vt 0.939554 0.387518
vt 0.773541 0.644782
vt 0.635422 0.391021
vt 0.633544 0.644719
vt 0.478183 0.390957
vt 0.476305 0.644656
vt 0.336462 0.385449
vt 0.471441 0.242522
vt 0.637300 0.240771
vt 0.636838 0.789524
vt 0.334584 0.639148
vt 0.474427 0.789461
vn -0.5773 0.5773 0.5773
vn -0.5773 -0.5773 -0.5773
vn -0.5773 -0.5773 0.5773
vn -0.5773 0.5773 -0.5773
vn 0.5773 -0.5773 -0.5773
vn 0.5773 0.5773 -0.5773
vn 0.5773 -0.5773 0.5773
vn 0.5773 0.5773 0.5773
s 1
f 2/1/1 3/2/2 1/3/3
f 4/4/4 7/5/5 3/2/2
f 8/6/6 5/7/7 7/5/5
f 6/8/8 1/9/3 5/7/7
f 7/5/5 1/10/3 3/11/2
f 4/12/4 6/8/8 8/6/6
f 2/1/1 4/4/4 3/2/2
f 4/4/4 8/6/6 7/5/5
f 8/6/6 6/8/8 5/7/7
f 6/8/8 2/13/1 1/9/3
f 7/5/5 5/7/7 1/10/3
f 4/12/4 2/14/1 6/8/8
