# Blender v2.93.2 OBJ File: 'vaca_pata.blend'
# www.blender.org
o Cube_Cube.002
v -0.500000 1.000000 0.500000
v -0.500000 1.000000 -0.500000
v -0.500000 -1.000000 0.500000
v -0.500000 -1.000000 -0.500000
v 0.500000 1.000000 0.500000
v 0.500000 1.000000 -0.500000
v 0.500000 -1.000000 0.500000
v 0.500000 -1.000000 -0.500000
vt 0.215539 0.557047
vt 0.269442 0.383699
vt 0.270406 0.556654
vt 0.159749 0.326554
vt 0.105772 0.384457
vt 0.105548 0.325834
vt 0.160303 0.383314
vt 0.104988 0.557352
vt 0.159859 0.558196
vt 0.105540 0.614985
vt 0.105667 0.557637
vt 0.051384 0.557016
vt 0.049979 0.384693
vt 0.215945 0.383591
vt 0.160115 0.556978
vt 0.217910 0.383401
vt 0.159805 0.614858
vt 0.214314 0.556935
vn -1.0000 0.0000 0.0000
vn 0.0000 -1.0000 0.0000
vn 1.0000 0.0000 0.0000
vn 0.0000 1.0000 0.0000
vn 0.0000 0.0000 1.0000
vn 0.0000 0.0000 -1.0000
s off
f 2/1/1 3/2/1 1/3/1
f 4/4/2 7/5/2 3/6/2
f 8/7/3 5/8/3 7/5/3
f 6/9/4 1/10/4 5/11/4
f 7/5/5 1/12/5 3/13/5
f 4/14/6 6/15/6 8/7/6
f 2/1/1 4/16/1 3/2/1
f 4/4/2 8/7/2 7/5/2
f 8/7/3 6/9/3 5/8/3
f 6/9/4 2/17/4 1/10/4
f 7/5/5 5/8/5 1/12/5
f 4/14/6 2/18/6 6/15/6
